# Blender 4.1.0
# www.blender.org
mtllib key.mtl
o Cylinder
v -0.219394 -0.212547 1.006817
v 0.427822 -0.327049 0.721686
v -0.237003 -0.230676 0.974127
v 0.410213 -0.345178 0.688996
v -0.244084 -0.271385 0.974403
v 0.403132 -0.385887 0.689272
v -0.233556 -0.293964 1.007368
v 0.413660 -0.408466 0.722238
v -0.215947 -0.275834 1.040058
v 0.431269 -0.390336 0.754928
v -0.208866 -0.235126 1.039783
v 0.438350 -0.349628 0.754652
v 0.400732 -0.389902 0.714991
v 0.409368 -0.340251 0.714655
v 0.315053 -0.374744 0.752737
v 0.323689 -0.325093 0.752401
v 0.380918 -0.386769 0.668757
v 0.389554 -0.337118 0.668421
v 0.295239 -0.371611 0.706503
v 0.303875 -0.321960 0.706167
v 0.343612 -0.379797 0.740155
v 0.372172 -0.384849 0.727573
v 0.380808 -0.335198 0.727237
v 0.352248 -0.330146 0.739819
v 0.352358 -0.381716 0.681339
v 0.323799 -0.376663 0.693921
v 0.332435 -0.327012 0.693585
v 0.360994 -0.332065 0.681003
v 0.288286 -0.319495 0.669792
v 0.279650 -0.369146 0.670128
v 0.308210 -0.374198 0.657546
v 0.345405 -0.329600 0.644628
v 0.373965 -0.334652 0.632046
v 0.365329 -0.384304 0.632382
v 0.336769 -0.379251 0.644964
v 0.316846 -0.324547 0.657210
v -0.248965 -0.264491 1.156145
v -0.243510 -0.233129 1.155933
v -0.368847 -0.243282 1.208959
v -0.363392 -0.211920 1.208746
v -0.366648 -0.245851 0.885882
v -0.361193 -0.214489 0.885670
v -0.481328 -0.225484 0.948008
v -0.475873 -0.194122 0.947795
v -0.456419 -0.228904 1.082829
v -0.450964 -0.197542 1.082617
v -0.254645 -0.264601 0.993938
v -0.249190 -0.233239 0.993726
v -0.383103 -0.262865 1.157256
v -0.389986 -0.268564 1.157706
v -0.388364 -0.261963 1.155292
v -0.351402 -0.192633 1.158488
v -0.378071 -0.188043 1.151407
v -0.381449 -0.180542 1.153363
v -0.369674 -0.182552 1.158992
v -0.444424 -0.252004 1.185967
v -0.449813 -0.251122 1.177878
v -0.444843 -0.258874 1.179634
v -0.425371 -0.172698 1.183530
v -0.426544 -0.172506 1.181758
v -0.432252 -0.178399 1.183805
v -0.431639 -0.178495 1.185469
v -0.459559 -0.257483 1.006959
v -0.453851 -0.251590 1.004912
v -0.444444 -0.170580 1.006371
v -0.441065 -0.178081 1.004415
v -0.509429 -0.248661 1.028929
v -0.512808 -0.241160 1.030886
v -0.498516 -0.161093 1.018535
v -0.504224 -0.166986 1.020582
v -0.384067 -0.262703 1.156330
v -0.384601 -0.269475 1.161454
v -0.388480 -0.261906 1.160712
v -0.371282 -0.189194 1.155833
v -0.350481 -0.192731 1.167686
v -0.374726 -0.181720 1.152031
v -0.371482 -0.182226 1.160639
v -0.403848 -0.258814 1.222596
v -0.412231 -0.257380 1.219103
v -0.407862 -0.265049 1.217698
v -0.388204 -0.178936 1.217067
v -0.397162 -0.177408 1.212565
v -0.399445 -0.183870 1.218605
v -0.391062 -0.185304 1.222099
v -0.314851 -0.274718 1.159892
v -0.316808 -0.281215 1.169173
v -0.322760 -0.273319 1.163310
v -0.302066 -0.201208 1.159394
v -0.309974 -0.199810 1.162812
v -0.307163 -0.193364 1.167962
v -0.298117 -0.194965 1.163847
v -0.286744 -0.279217 1.217465
v -0.294571 -0.277828 1.221575
v -0.293329 -0.284977 1.216628
v -0.274873 -0.198687 1.211330
v -0.283603 -0.197136 1.216090
v -0.281785 -0.204318 1.221078
v -0.273958 -0.205707 1.216967
v -0.254760 -0.285757 1.073182
v -0.248367 -0.293732 1.078487
v -0.255863 -0.285507 1.081731
v -0.241974 -0.212247 1.072684
v -0.243078 -0.211997 1.081233
v -0.236529 -0.206230 1.082241
v -0.235568 -0.206464 1.072319
v -0.190712 -0.296886 1.074757
v -0.191623 -0.296669 1.083361
v -0.195559 -0.302915 1.078788
v -0.182442 -0.215696 1.073597
v -0.184203 -0.215323 1.083500
v -0.178838 -0.223160 1.082863
v -0.177927 -0.223377 1.074259
v -0.313665 -0.276398 0.942110
v -0.306433 -0.284580 0.938571
v -0.306904 -0.277537 0.947532
v -0.300879 -0.202889 0.941612
v -0.294119 -0.204028 0.947035
v -0.289057 -0.198033 0.943429
v -0.296606 -0.196763 0.937058
v -0.272216 -0.283909 0.897586
v -0.265362 -0.285065 0.902862
v -0.271951 -0.290819 0.902879
v -0.263391 -0.202782 0.901303
v -0.254926 -0.204218 0.906689
v -0.252576 -0.211556 0.902364
v -0.259430 -0.210400 0.897088
v -0.425150 -0.257107 0.927462
v -0.426867 -0.263775 0.917506
v -0.418076 -0.258361 0.923847
v -0.412364 -0.183597 0.926965
v -0.405291 -0.184852 0.923349
v -0.405451 -0.177960 0.918020
v -0.414420 -0.176371 0.922309
v -0.446933 -0.253667 0.875800
v -0.439274 -0.255023 0.872398
v -0.442995 -0.261243 0.877091
v -0.431266 -0.173717 0.881550
v -0.422260 -0.175312 0.877350
v -0.426488 -0.181513 0.871901
v -0.434147 -0.180158 0.875303
v -0.456187 -0.250956 0.995918
v -0.462853 -0.257580 0.990063
v -0.454371 -0.251624 0.986499
v -0.443499 -0.178007 0.995424
v -0.441585 -0.178115 0.986001
v -0.445323 -0.170574 0.984745
v -0.447356 -0.170449 0.994500
v -0.515503 -0.240957 0.983141
v -0.512847 -0.241538 0.974035
v -0.511794 -0.248485 0.979648
v -0.496598 -0.161720 0.983826
v -0.493504 -0.162264 0.974306
v -0.500062 -0.168028 0.973538
v -0.502736 -0.167559 0.982644
v -0.462207 -0.256834 0.997549
v -0.456207 -0.250968 0.995670
v -0.443514 -0.177992 0.995176
v -0.447177 -0.170421 0.996965
v -0.447758 -0.177484 1.002137
v -0.510847 -0.247990 1.019020
v -0.514571 -0.240421 1.021524
v -0.495898 -0.162040 1.018438
v -0.501953 -0.167874 1.021033
vn -0.0482 0.8843 -0.4645
vn -0.3931 0.0622 -0.9174
vn -0.3450 -0.8221 -0.4529
vn 0.0482 -0.8843 0.4645
vn 0.9034 -0.1598 -0.3980
vn 0.3931 -0.0622 0.9174
vn 0.3450 0.8221 0.4529
vn -0.9034 0.1598 0.3980
vn -0.1714 -0.9852 0.0067
vn 0.1714 0.9852 -0.0067
vn -0.9683 0.1697 0.1832
vn -0.4647 0.0749 -0.8823
vn 0.9846 -0.1715 -0.0344
vn 0.6783 -0.1229 -0.7244
vn -0.8051 0.1439 0.5754
vn -0.7011 0.1267 0.7017
vn 0.1087 -0.0256 -0.9937
vn -0.1720 -0.9851 0.0068
vn -0.7824 0.1320 -0.6087
vn -0.8989 0.1720 0.4029
vn 0.9033 -0.1533 -0.4007
vn 0.7998 -0.1351 0.5849
vn 0.0102 0.0050 0.9999
vn -0.1662 0.0356 0.9854
vn -0.9079 0.1605 0.3873
vn 0.9014 -0.1595 -0.4024
vn -0.8145 0.1379 -0.5635
vn 0.1437 -0.0317 -0.9891
vn 0.8805 -0.1501 0.4497
vn -0.9828 0.1714 0.0693
vn 0.1724 0.9850 0.0037
vn -0.9850 0.1715 0.0215
vn 0.2633 -0.3878 -0.8834
vn 0.3466 0.5347 -0.7707
vn -0.7842 -0.3941 0.4794
vn -0.5853 0.7240 0.3650
vn -0.6794 -0.4079 -0.6099
vn -0.0954 0.4160 0.9043
vn -0.4104 -0.3852 0.8266
vn -0.2052 0.6852 0.6988
vn -0.3791 -0.7187 -0.5830
vn -0.2055 0.6578 -0.7246
vn 0.3327 -0.4969 0.8015
vn 0.4609 0.5868 0.6658
vn -0.7520 -0.6546 -0.0780
vn -0.6600 0.7454 -0.0933
vn 0.8071 -0.5818 0.1001
vn 0.8389 0.5343 0.1041
vn -0.5236 -0.6831 0.5092
vn -0.3804 0.6999 0.6045
vn 0.4599 -0.5288 -0.7133
vn 0.5298 0.5780 -0.6207
vn 0.1264 -0.8341 0.5369
vn 0.4435 0.5629 0.6975
vn -0.4311 -0.3647 -0.8253
vn -0.1782 0.7204 -0.6703
vn 0.6136 -0.7704 0.1730
vn 0.8696 0.4624 0.1734
vn -0.9100 -0.3352 -0.2440
vn -0.6354 0.7350 -0.2368
vn 0.8273 0.2860 0.4835
vn 0.2566 -0.0925 -0.9621
vn -0.8346 0.1535 0.5290
vn -0.8281 -0.4575 0.3239
vn -0.6209 0.7139 0.3237
vn 0.7372 -0.5648 -0.3709
vn 0.8281 0.4575 -0.3239
vn -0.6710 0.2065 0.7122
vn -0.3733 0.0712 0.9250
vn -0.4622 0.6872 0.5605
vn 0.3291 0.8900 0.3156
vn 0.9753 -0.2208 0.0005
vn -0.6658 -0.4834 0.5684
vn -0.3869 0.0611 -0.9201
vn 0.4535 -0.0729 0.8882
vn -0.0929 -0.5774 0.8111
vn 0.1094 0.5855 0.8033
vn 0.1889 0.5613 -0.8058
vn -0.0135 -0.6027 -0.7979
vn -0.9769 0.1690 -0.1311
vn 0.9796 -0.1696 0.1080
vn 0.7465 0.4730 0.4679
vn -0.5301 0.6884 -0.4951
vn -0.7325 -0.4754 -0.4872
vn 0.5440 -0.6911 0.4758
vn -0.6103 0.1115 0.7843
vn 0.5948 -0.1088 -0.7965
vn 0.6227 -0.7142 -0.3196
vn 0.8266 0.4577 -0.3275
vn -0.6279 0.7150 0.3074
vn -0.8318 -0.4569 0.3153
vn 0.4439 -0.0712 0.8932
vn -0.3958 0.0626 -0.9162
vn -0.0328 0.6110 0.7910
vn -0.2354 -0.5536 0.7989
vn 0.2171 0.5566 -0.8019
vn 0.0146 -0.6077 -0.7940
vn 0.9659 -0.1667 0.1981
vn 0.1700 0.9854 0.0110
vn -0.9444 0.1623 -0.2858
vn -0.5558 0.6934 -0.4586
vn 0.8112 0.4618 0.3586
vn 0.6223 -0.6900 0.3696
vn -0.7573 -0.4739 -0.4493
vn -0.8924 -0.4503 0.0275
vn -0.6901 0.7234 0.0203
vn 0.8913 0.4472 -0.0747
vn 0.7002 -0.7138 0.0117
vn 0.8381 -0.4382 0.3249
vn -0.4108 0.5533 0.7246
vn 0.1708 0.9853 -0.0076
vn -0.9886 0.1385 -0.0587
vn -0.8854 -0.4508 0.1132
vn -0.1882 -0.9818 -0.0275
vn 0.6534 -0.7220 -0.2273
vn 0.9513 -0.1672 -0.2589
vn -0.0523 -0.3217 -0.9454
vt 1.000000 0.500000
vt 1.000000 1.000000
vt 0.833333 1.000000
vt 0.833333 0.500000
vt 0.666667 1.000000
vt 0.666667 0.500000
vt 0.500000 1.000000
vt 0.500000 0.500000
vt 0.333333 1.000000
vt 0.333333 0.500000
vt 0.457846 0.370000
vt 0.250000 0.490000
vt 0.042154 0.370000
vt 0.042154 0.130000
vt 0.250000 0.010000
vt 0.457846 0.130000
vt 0.166667 1.000000
vt 0.166667 0.500000
vt -0.000000 1.000000
vt -0.000000 0.500000
vt 0.750000 0.490000
vt 0.957846 0.370000
vt 0.957846 0.130000
vt 0.750000 0.010000
vt 0.542154 0.130000
vt 0.542154 0.370000
vt 0.375000 0.166667
vt 0.625000 0.166667
vt 0.625000 0.250000
vt 0.375000 0.250000
vt 0.625000 0.500000
vt 0.375000 0.500000
vt 0.375000 0.750000
vt 0.625000 0.750000
vt 0.625000 1.000000
vt 0.375000 1.000000
vt 0.125000 0.666667
vt 0.375000 0.666667
vt 0.125000 0.750000
vt 0.625000 0.666667
vt 0.875000 0.666667
vt 0.875000 0.750000
vt 0.875000 0.500000
vt 0.875000 0.583333
vt 0.625000 0.583333
vt 0.125000 0.500000
vt 0.375000 0.583333
vt 0.125000 0.583333
vt 0.375000 0.000000
vt 0.625000 0.000000
vt 0.625000 0.083333
vt 0.375000 0.083333
vt 0.375000 0.375000
vt 0.625000 0.375000
vt 0.375000 0.875000
vt 0.625000 0.875000
vt 0.250000 0.500000
vt 0.250000 0.750000
vt 0.750000 0.500000
vt 0.750000 0.750000
vt 0.605735 0.250000
vt 0.394265 0.250000
vt 0.394265 0.250000
vt 0.605735 0.250000
vt 0.394265 1.000000
vt 0.605735 1.000000
vt 0.605735 1.000000
vt 0.131456 0.506135
vt 0.502605 0.507393
vt 0.561575 0.711250
vt 0.132880 0.569246
vt 0.127605 0.710046
vt 0.125931 0.683585
vt 0.124897 0.683044
vt 0.123933 0.683040
vt 0.120847 0.660249
vt 0.065643 0.700618
vt -0.061009 0.707623
vt -0.055705 0.506507
vt 0.116217 0.505930
vt 0.124086 0.504694
vt 0.124725 0.505127
vt 0.125011 0.504518
vt 0.125381 0.504289
vt 0.126410 0.504144
vt 0.875000 0.753597
vt 0.875000 0.520581
vt 0.875000 0.520497
vt 0.875000 0.833095
vt 0.394265 1.000000
vt 0.394265 1.000000
vt 0.632287 0.519265
vt 0.867713 0.519265
vt 0.867713 0.730735
vt 0.632287 0.730735
vt 0.394265 0.257287
vt 0.605735 0.257287
vt 0.605735 0.492713
vt 0.394265 0.492713
vt 0.394265 0.757287
vt 0.605735 0.757287
vt 0.605735 0.992713
vt 0.394265 0.992713
vt 0.394265 0.250000
vt 0.875000 0.731158
vt 0.875000 0.518958
vt 0.875000 0.521160
vt 0.875000 0.728445
vt 0.605735 1.000000
vt 0.605735 1.000000
vt 0.394265 1.000000
vt 0.605735 1.000000
vt 0.875000 0.728134
vt 0.875000 0.521950
vt 0.875000 0.523100
vt 0.875000 0.726783
vt 0.875000 0.725302
vt 0.875000 0.524791
vt 0.875000 0.526060
vt 0.875000 0.723849
vt 0.875000 0.728665
vt 0.875000 0.521377
vt 0.875000 0.522180
vt 0.875000 0.727780
vt 0.605735 0.250000
vt 0.394265 0.250000
vt 0.394401 1.000000
vt 0.605599 1.000000
vt 0.605604 1.000000
vt 0.394396 1.000000
vt 0.875000 0.723066
vt 0.875000 0.526299
vt 0.875000 0.522368
vt 0.875000 0.727852
vt 0.875000 0.729024
vt 0.875000 0.521005
vt 0.875000 0.520916
vt 0.875000 0.729130
vt 0.605678 0.250000
vt 0.394322 0.250000
vt 0.394449 0.250000
vt 0.605550 0.250000
vt 0.131950 0.750000
vt 0.132284 0.749995
vt 0.605735 1.000000
vt 0.132287 0.500000
vt 0.125000 0.749983
vt 0.129743 0.703555
vt 0.605735 1.000000
vt 0.125000 0.749988
vt 0.125000 0.749983
vt 0.125000 0.749987
vt 0.125000 0.500001
vt 0.125000 0.500003
vt 0.125000 0.500001
vt 0.125000 0.500002
vt 0.124999 0.500003
vt 0.625000 0.250000
vt 0.624762 1.000000
vt 0.124997 0.500002
vt 0.606278 0.000000
vt 0.625000 0.013753
vt 0.605494 0.019367
vt 0.605734 1.000000
vt 0.394265 1.000000
vt 0.367713 0.500000
vt 0.625000 0.257287
vt 0.625000 0.492713
vt 0.367713 0.750000
vt 0.132287 0.750000
vt 0.625000 0.757287
vt 0.625000 0.992713
vt 0.394265 1.000000
vt 0.605735 1.000000
vt 0.625000 1.000000
vt 0.000000 0.000000
s 0
usemtl Material
f 1/1/1 2/2/1 4/3/1 3/4/1
f 3/4/2 4/3/2 6/5/2 5/6/2
f 5/6/3 6/5/3 8/7/3 7/8/3
f 7/8/4 8/7/4 10/9/4 9/10/4
f 4/11/5 2/12/5 12/13/5 10/14/5 8/15/5 6/16/5
f 9/10/6 10/9/6 12/17/6 11/18/6
f 11/18/7 12/17/7 2/19/7 1/20/7
f 1/21/8 3/22/8 5/23/8 7/24/8 9/25/8 11/26/8
f 21/27/6 24/28/6 16/29/6 15/30/6
f 15/30/8 16/29/8 20/31/8 19/32/8
f 19/32/8 20/31/8 29/31/8 30/32/8
f 17/33/5 18/34/5 14/35/5 13/36/5
f 22/37/9 25/38/9 17/33/9 13/39/9
f 28/40/10 23/41/10 14/42/10 18/34/10
f 20/31/10 16/43/10 24/44/10 27/45/10
f 27/45/10 24/44/10 23/41/10 28/40/10
f 15/46/9 19/32/9 26/47/9 21/48/9
f 21/48/9 26/47/9 25/38/9 22/37/9
f 28/40/10 18/34/10 33/34/10 32/40/10
f 26/47/2 27/45/2 28/40/2 25/38/2
f 13/49/6 14/50/6 23/51/6 22/52/6
f 22/52/6 23/51/6 24/28/6 21/27/6
f 35/38/2 32/40/2 33/34/2 34/33/2
f 30/32/2 29/31/2 36/45/2 31/47/2
f 27/45/5 26/47/5 31/47/5 36/45/5
f 18/34/5 17/33/5 34/33/5 33/34/5
f 20/31/10 27/45/10 36/45/10 29/31/10
f 26/47/9 19/32/9 30/32/9 31/47/9
f 17/33/9 25/38/9 35/38/9 34/33/9
f 25/38/8 28/40/8 32/40/8 35/38/8
f 37/49/6 38/50/6 40/29/6 39/30/6
f 45/53/11 46/54/11 44/31/11 43/32/11
f 43/32/12 44/31/12 42/34/12 41/33/12
f 47/55/13 48/56/13 38/35/13 37/36/13
f 45/57/9 43/32/9 41/33/9 47/58/9
f 46/59/10 40/43/10 38/42/10 48/60/10
f 44/31/10 46/59/10 48/60/10 42/34/10
f 39/46/9 45/57/9 47/58/9 37/39/9
f 41/33/14 42/34/14 48/56/14 47/55/14
f 39/30/15 40/29/15 46/54/15 45/53/15
f 62/61/16 56/62/16 79/63/16 83/64/16
f 71/65/17 74/66/17 89/67/17 87/65/17
f 58/68/18 67/69/18 63/70/18 50/71/18 72/72/18 86/73/18 100/74/18 114/75/18 128/76/18 142/77/18 155/78/18 160/79/18 150/80/18 136/81/18 122/82/18 108/83/18 94/84/18 80/85/18
f 55/86/10 59/87/10 82/88/10 76/89/10
f 85/90/19 88/66/19 103/66/19 101/91/19
f 69/92/10 60/93/10 54/94/10 65/95/10
f 57/96/20 61/97/20 70/98/20 68/99/20
f 64/100/21 66/101/21 53/102/21 51/103/21
f 98/64/22 92/104/22 107/63/22 111/61/22
f 77/105/10 81/106/10 96/107/10 90/108/10
f 84/64/23 78/63/23 93/63/23 97/61/23
f 113/91/24 116/109/24 131/110/24 129/65/24
f 99/111/25 102/112/25 117/66/25 115/65/25
f 91/113/10 95/114/10 110/115/10 104/116/10
f 119/117/10 123/118/10 138/119/10 132/120/10
f 105/121/10 109/122/10 124/123/10 118/124/10
f 112/125/26 106/62/26 121/126/26 125/125/26
f 140/61/27 134/126/27 149/63/27 153/61/27
f 126/64/28 120/104/28 135/104/28 139/61/28
f 127/65/29 130/67/29 145/66/29 143/90/29
f 141/127/30 144/128/30 157/129/30 156/130/30
f 133/131/10 137/132/10 152/133/10 146/134/10
f 147/135/31 151/136/31 162/137/31 158/138/31
f 154/139/32 148/140/32 161/141/32 163/142/32
f 49/143/33 50/71/33 51/144/33
f 52/145/34 53/66/34 54/35/34 55/35/34
f 56/46/35 57/146/35 58/68/35
f 59/29/36 60/29/36 61/64/36 62/61/36
f 71/147/37 72/72/37 73/148/37
f 74/66/38 75/149/38 76/35/38 77/35/38
f 78/46/39 79/46/39 80/85/39
f 81/29/40 82/29/40 83/64/40 84/64/40
f 85/150/41 86/73/41 87/151/41
f 88/67/42 89/67/42 90/35/42 91/35/42
f 92/46/43 93/46/43 94/84/43
f 95/29/44 96/29/44 97/61/44 98/61/44
f 99/39/45 100/74/45 101/152/45
f 102/67/46 103/66/46 104/35/46 105/35/46
f 106/153/47 107/46/47 108/83/47
f 109/29/48 110/29/48 111/61/48 112/61/48
f 113/39/49 114/75/49 115/39/49
f 116/66/50 117/66/50 118/35/50 119/35/50
f 120/154/51 121/155/51 122/82/51
f 123/29/52 124/29/52 125/125/52 126/61/52
f 127/39/53 128/76/53 129/39/53
f 130/66/54 131/110/54 132/35/54 133/35/54
f 134/156/55 135/157/55 136/81/55
f 137/158/56 138/29/56 139/61/56 140/61/56
f 141/39/57 142/77/57 143/39/57
f 144/128/58 145/67/58 146/35/58 147/159/58
f 148/46/59 149/160/59 150/80/59
f 151/29/60 152/29/60 153/61/60 154/139/60
f 157/161/61 158/162/61 159/163/61
f 51/103/62 53/102/62 52/164/62 49/165/62
f 54/94/10 60/93/10 59/87/10 55/86/10
f 61/97/63 57/96/63 56/62/63 62/61/63
f 67/69/64 58/68/64 57/146/64 68/166/64
f 60/167/65 69/168/65 70/98/65 61/97/65
f 50/71/66 63/70/66 64/169/66 51/170/66
f 65/171/67 54/172/67 53/102/67 66/101/67
f 73/173/68 75/174/68 74/66/68 71/65/68
f 76/89/10 82/88/10 81/106/10 77/105/10
f 83/64/69 79/63/69 78/63/69 84/64/69
f 62/61/70 83/64/70 82/29/70 59/29/70
f 75/174/71 52/164/71 55/35/71 76/35/71
f 49/39/72 73/39/72 72/72/72 50/71/72
f 79/46/73 56/46/73 58/68/73 80/85/73
f 87/65/74 89/67/74 88/66/74 85/90/74
f 90/108/10 96/107/10 95/114/10 91/113/10
f 97/61/75 93/63/75 92/104/75 98/64/75
f 80/85/76 94/84/76 93/46/76 78/46/76
f 96/29/77 81/29/77 84/64/77 97/61/77
f 77/35/78 90/35/78 89/67/78 74/66/78
f 86/73/79 72/72/79 71/39/79 87/39/79
f 101/91/80 103/66/80 102/112/80 99/111/80
f 104/116/10 110/115/10 109/122/10 105/121/10
f 111/61/81 107/63/81 106/62/81 112/125/81
f 98/64/82 111/61/82 110/29/82 95/29/82
f 103/66/83 88/66/83 91/35/83 104/35/83
f 85/39/84 101/39/84 100/74/84 86/73/84
f 107/46/85 92/46/85 94/84/85 108/83/85
f 115/65/86 117/66/86 116/109/86 113/91/86
f 118/124/10 124/123/10 123/118/10 119/117/10
f 125/125/87 121/126/87 120/104/87 126/64/87
f 108/83/88 122/82/88 121/46/88 106/46/88
f 124/29/89 109/29/89 112/125/89 125/125/89
f 105/35/90 118/35/90 117/66/90 102/112/90
f 114/75/91 100/74/91 99/39/91 115/39/91
f 129/65/92 131/110/92 130/67/92 127/65/92
f 132/120/10 138/119/10 137/132/10 133/131/10
f 139/61/93 135/104/93 134/126/93 140/61/93
f 119/35/94 132/35/94 131/110/94 116/109/94
f 128/76/95 114/75/95 113/39/95 129/39/95
f 126/64/96 139/61/96 138/29/96 123/29/96
f 135/46/97 120/46/97 122/82/97 136/81/97
f 143/90/98 145/66/98 144/128/98 141/127/98
f 146/134/99 152/133/99 151/136/99 147/135/99
f 153/61/100 149/63/100 148/140/100 154/139/100
f 140/61/101 153/61/101 152/29/101 137/29/101
f 145/66/102 130/67/102 133/175/102 146/35/102
f 127/39/103 143/39/103 142/77/103 128/76/103
f 149/46/104 134/46/104 136/81/104 150/80/104
f 150/80/105 160/79/105 161/46/105 148/46/105
f 162/29/106 151/29/106 154/139/106 163/142/106
f 147/35/107 158/35/107 157/129/107 144/128/107
f 155/78/108 142/77/108 141/39/108 156/39/108
f 49/165/109 52/164/109 75/174/109 73/173/109
f 50/71/110 72/72/110 49/143/110
f 60/93/111 54/94/111 65/95/111 158/138/111 147/135/111 151/136/111 162/137/111 69/92/111
f 68/99/112 70/98/112 163/142/112 161/46/112
f 67/69/113 68/99/113 161/46/113 160/79/113
f 63/70/114 67/69/114 160/79/114 155/78/114
f 63/70/115 155/78/115 141/176/115 64/169/115
f 144/176/116 66/176/116 64/176/116 141/176/116
f 70/98/117 69/92/117 162/29/117 163/142/117
